<?xml version="1.0" encoding="UTF-8" standalone="no"?><svg xmlns="http://www.w3.org/2000/svg" xmlns:xlink="http://www.w3.org/1999/xlink" contentStyleType="text/css" height="474px" preserveAspectRatio="none" style="width:415px;height:474px;background:#FFFFFF;" version="1.1" viewBox="0 0 415 474" width="415px" zoomAndPan="magnify"><defs/><g><!--MD5=[35a64b983c79880384a2fd9b61f0c24b]
class Usuario--><g id="elem_Usuario"><rect codeLine="1" fill="#F1F1F1" height="181.4754" id="Usuario" rx="2.5" ry="2.5" style="stroke:#181818;stroke-width:0.5;" width="401" x="7" y="7"/><ellipse cx="177.25" cy="23" fill="#ADD1B2" rx="11" ry="11" style="stroke:#181818;stroke-width:1.0;"/><path d="M176.7188,29.9219 Q174.9688,29.9219 173.8281,29.1875 Q172.7031,28.4375 172.1406,27.0938 Q171.5938,25.7344 171.5938,23.9375 Q171.5938,21.9063 172.25,20.4531 Q172.9063,19 174.1875,18.2188 Q175.4688,17.4375 177.3438,17.4375 Q178.2344,17.4375 178.9063,17.625 Q179.5781,17.7969 180.2656,18.1406 L179.4531,20.1563 Q178.8281,19.8438 178.2813,19.7188 Q177.75,19.5938 177.2656,19.5938 Q176.0938,19.5938 175.3906,20.125 Q174.6875,20.6563 174.3906,21.6094 Q174.0938,22.5625 174.0938,23.8281 Q174.0938,25.8438 174.8125,26.8125 Q175.5313,27.7656 177.125,27.7656 Q177.7188,27.7656 178.3438,27.6094 Q178.9688,27.4531 179.7969,27.0781 L179.7969,29.2969 Q179.0625,29.6094 178.2656,29.7656 Q177.4844,29.9219 176.7188,29.9219 Z " fill="#000000"/><text fill="#000000" font-family="sans-serif" font-size="14" lengthAdjust="spacing" textLength="52" x="197.75" y="28.432">Usuario</text><line style="stroke:#181818;stroke-width:0.5;" x1="8" x2="407" y1="39" y2="39"/><rect fill="none" height="6" style="stroke:#C82930;stroke-width:1.0;" width="6" x="15" y="51.034"/><text fill="#000000" font-family="sans-serif" font-size="14" lengthAdjust="spacing" textLength="87" x="27" y="57.9659">nome: String</text><rect fill="none" height="6" style="stroke:#C82930;stroke-width:1.0;" width="6" x="15" y="70.1019"/><text fill="#000000" font-family="sans-serif" font-size="14" lengthAdjust="spacing" textLength="86" x="27" y="77.0339">email: String</text><rect fill="none" height="6" style="stroke:#C82930;stroke-width:1.0;" width="6" x="15" y="89.1698"/><text fill="#000000" font-family="sans-serif" font-size="14" lengthAdjust="spacing" textLength="90" x="27" y="96.1018">senha: String</text><rect fill="none" height="6" style="stroke:#C82930;stroke-width:1.0;" width="6" x="15" y="108.2377"/><text fill="#000000" font-family="sans-serif" font-size="14" lengthAdjust="spacing" textLength="150" x="27" y="115.1697">isAutenticado:Boolean</text><line style="stroke:#181818;stroke-width:0.5;" x1="8" x2="407" y1="123.2717" y2="123.2717"/><ellipse cx="18" cy="138.3056" fill="#84BE84" rx="3" ry="3" style="stroke:#038048;stroke-width:1.0;"/><text fill="#000000" font-family="sans-serif" font-size="14" lengthAdjust="spacing" textLength="375" x="27" y="142.2376">Usuario(nome: String, email: String, senha: String): void</text><ellipse cx="18" cy="157.3735" fill="#84BE84" rx="3" ry="3" style="stroke:#038048;stroke-width:1.0;"/><text fill="#000000" font-family="sans-serif" font-size="14" lengthAdjust="spacing" textLength="86" x="27" y="161.3055">entrar(): void</text><ellipse cx="18" cy="176.4415" fill="#84BE84" rx="3" ry="3" style="stroke:#038048;stroke-width:1.0;"/><text fill="#000000" font-family="sans-serif" font-size="14" lengthAdjust="spacing" textLength="103" x="27" y="180.3734">registrar(): void</text></g><!--MD5=[20a748d5ee336a9a91751b0a3d4f0beb]
class Cliente--><g id="elem_Cliente"><rect codeLine="11" fill="#F1F1F1" height="219.6113" id="Cliente" rx="2.5" ry="2.5" style="stroke:#181818;stroke-width:0.5;" width="333" x="41" y="248"/><ellipse cx="179.75" cy="264" fill="#ADD1B2" rx="11" ry="11" style="stroke:#181818;stroke-width:1.0;"/><path d="M179.2188,270.9219 Q177.4688,270.9219 176.3281,270.1875 Q175.2031,269.4375 174.6406,268.0938 Q174.0938,266.7344 174.0938,264.9375 Q174.0938,262.9063 174.75,261.4531 Q175.4063,260 176.6875,259.2188 Q177.9688,258.4375 179.8438,258.4375 Q180.7344,258.4375 181.4063,258.625 Q182.0781,258.7969 182.7656,259.1406 L181.9531,261.1563 Q181.3281,260.8438 180.7813,260.7188 Q180.25,260.5938 179.7656,260.5938 Q178.5938,260.5938 177.8906,261.125 Q177.1875,261.6563 176.8906,262.6094 Q176.5938,263.5625 176.5938,264.8281 Q176.5938,266.8438 177.3125,267.8125 Q178.0313,268.7656 179.625,268.7656 Q180.2188,268.7656 180.8438,268.6094 Q181.4688,268.4531 182.2969,268.0781 L182.2969,270.2969 Q181.5625,270.6094 180.7656,270.7656 Q179.9844,270.9219 179.2188,270.9219 Z " fill="#000000"/><text fill="#000000" font-family="sans-serif" font-size="14" lengthAdjust="spacing" textLength="47" x="200.25" y="269.432">Cliente</text><line style="stroke:#181818;stroke-width:0.5;" x1="42" x2="373" y1="280" y2="280"/><rect fill="none" height="6" style="stroke:#C82930;stroke-width:1.0;" width="6" x="49" y="292.034"/><text fill="#000000" font-family="sans-serif" font-size="14" lengthAdjust="spacing" textLength="236" x="61" y="298.9659">MAXIMO_REND_AUFERIDOS: int = 3</text><rect fill="none" height="6" style="stroke:#C82930;stroke-width:1.0;" width="6" x="49" y="311.1019"/><text fill="#000000" font-family="sans-serif" font-size="14" lengthAdjust="spacing" textLength="112" x="61" y="318.0339">endereco: String</text><rect fill="none" height="6" style="stroke:#C82930;stroke-width:1.0;" width="6" x="49" y="330.1698"/><text fill="#000000" font-family="sans-serif" font-size="14" lengthAdjust="spacing" textLength="181" x="61" y="337.1018">rendimentos: List&lt;Double&gt;</text><rect fill="none" height="6" style="stroke:#C82930;stroke-width:1.0;" width="6" x="49" y="349.2377"/><text fill="#000000" font-family="sans-serif" font-size="14" lengthAdjust="spacing" textLength="70" x="61" y="356.1697">cpf: String</text><rect fill="none" height="6" style="stroke:#C82930;stroke-width:1.0;" width="6" x="49" y="368.3056"/><text fill="#000000" font-family="sans-serif" font-size="14" lengthAdjust="spacing" textLength="64" x="61" y="375.2376">rg: String</text><line style="stroke:#181818;stroke-width:0.5;" x1="42" x2="373" y1="383.3396" y2="383.3396"/><ellipse cx="52" cy="398.3735" fill="#84BE84" rx="3" ry="3" style="stroke:#038048;stroke-width:1.0;"/><text fill="#000000" font-family="sans-serif" font-size="14" lengthAdjust="spacing" textLength="306" x="61" y="402.3055">adicionarPedidoAluguel(pedido: Pedido): void</text><ellipse cx="52" cy="417.4415" fill="#84BE84" rx="3" ry="3" style="stroke:#038048;stroke-width:1.0;"/><text fill="#000000" font-family="sans-serif" font-size="14" lengthAdjust="spacing" textLength="262" x="61" y="421.3734">consultarPedidoAluguel(): List&lt;Pedido&gt;</text><ellipse cx="52" cy="436.5094" fill="#84BE84" rx="3" ry="3" style="stroke:#038048;stroke-width:1.0;"/><text fill="#000000" font-family="sans-serif" font-size="14" lengthAdjust="spacing" textLength="307" x="61" y="440.4414">modificarPedidoAluguel(pedido: Pedido): void</text><ellipse cx="52" cy="455.5773" fill="#84BE84" rx="3" ry="3" style="stroke:#038048;stroke-width:1.0;"/><text fill="#000000" font-family="sans-serif" font-size="14" lengthAdjust="spacing" textLength="300" x="61" y="459.5093">cancelarPedidoAluguel(pedido: Pedido): void</text></g><!--MD5=[025ca94d3d40d768945225c28d38fc0c]
reverse link Usuario to Cliente--><g id="link_Usuario_Cliente"><path codeLine="23" d="M207.5,208.42 C207.5,221.48 207.5,234.82 207.5,247.87 " fill="none" id="Usuario-backto-Cliente" style="stroke:#181818;stroke-width:1.0;"/><polygon fill="none" points="200.5,208.19,207.5,188.19,214.5,208.19,200.5,208.19" style="stroke:#181818;stroke-width:1.0;"/></g><!--MD5=[40f613df51069819f910f59539a136ba]
@startuml teste
class Usuario{
    - nome: String
    - email: String
    - senha: String
    - isAutenticado:Boolean
    + Usuario(nome: String, email: String, senha: String): void
    + entrar(): void
    + registrar(): void
}

class Cliente{
    - MAXIMO_REND_AUFERIDOS: int = 3
    - endereco: String
    - rendimentos: List<Double>
    - cpf: String
    - rg: String
    + adicionarPedidoAluguel(pedido: Pedido): void
    + consultarPedidoAluguel(): List<Pedido>
    + modificarPedidoAluguel(pedido: Pedido): void
    + cancelarPedidoAluguel(pedido: Pedido): void
}

Usuario <|- - Cliente

@enduml

PlantUML version 1.2022.7(Mon Aug 22 14:01:30 BRT 2022)
(GPL source distribution)
Java Runtime: OpenJDK Runtime Environment
JVM: OpenJDK 64-Bit Server VM
Default Encoding: UTF-8
Language: pt
Country: BR
--></g></svg>